<?xml version="1.0" encoding="UTF-8" standalone="no"?>
<svg
   xmlns:dc="http://purl.org/dc/elements/1.1/"
   xmlns:cc="http://creativecommons.org/ns#"
   xmlns:rdf="http://www.w3.org/1999/02/22-rdf-syntax-ns#"
   xmlns:svg="http://www.w3.org/2000/svg"
   xmlns="http://www.w3.org/2000/svg"
   xmlns:sodipodi="http://sodipodi.sourceforge.net/DTD/sodipodi-0.dtd"
   xmlns:inkscape="http://www.inkscape.org/namespaces/inkscape"
   inkscape:export-ydpi="300"
   inkscape:export-xdpi="300"
   inkscape:export-filename="C:\Users\kiera\Documents\GitHub\Base24.github.io\images\shorticons\builder.png"
   inkscape:version="1.0 (4035a4fb49, 2020-05-01)"
   sodipodi:docname="builder.svg"
   viewBox="0 0 61.439999 61.439999"
   height="61.439999"
   width="61.439999"
   id="svg830"
   version="1.1">
  <metadata
     id="metadata836">
    <rdf:RDF>
      <cc:Work
         rdf:about="">
        <dc:format>image/svg+xml</dc:format>
        <dc:type
           rdf:resource="http://purl.org/dc/dcmitype/StillImage" />
        <dc:title></dc:title>
      </cc:Work>
    </rdf:RDF>
  </metadata>
  <defs
     id="defs834" />
  <sodipodi:namedview
     inkscape:current-layer="g838"
     inkscape:window-maximized="1"
     inkscape:window-y="-9"
     inkscape:window-x="-9"
     inkscape:cy="30.719999"
     inkscape:cx="30.719999"
     inkscape:zoom="13.411459"
     showgrid="false"
     id="namedview832"
     inkscape:window-height="1001"
     inkscape:window-width="1920"
     inkscape:pageshadow="2"
     inkscape:pageopacity="0"
     guidetolerance="10"
     gridtolerance="10"
     objecttolerance="10"
     borderopacity="1"
     bordercolor="#666666"
     pagecolor="#ffffff" />
  <g
     id="g838"
     inkscape:label="Image"
     inkscape:groupmode="layer">
    <path
       id="path844"
       d="M 27.04,58.547826 C 15.253195,56.743122 5.899725,48.312271 3.2025887,37.061724 2.3281313,33.414105 2.3326478,28.012001 3.2132419,24.32 5.2512111,15.775556 11.761983,8.1729384 19.833297,4.91279 23.719543,3.3430655 26.468695,2.8021214 30.56,2.8021214 c 4.091305,0 6.840457,0.5409441 10.726703,2.1106686 10.302055,4.1611846 17.375776,14.667365 17.375776,25.807209 0,11.139847 -7.073721,21.646026 -17.375776,25.80721 C 36.751321,58.359132 31.070155,59.164892 27.04,58.547826 Z"
       style="fill:#f5f5f5;fill-opacity:1;stroke-width:0.32" />
    <path
       id="path842"
       d="m 19.74797,41.669007 c -2.371599,-2.407804 -2.273168,-2.705305 2.435139,-7.360038 l 3.943109,-3.89824 -0.823109,-0.763636 C 24.672861,29.062383 24.217575,28.915114 23.36,29.018567 21.76899,29.210497 19.518301,27.996884 18.800497,26.56 c -0.307726,-0.616 -0.559726,-1.73652 -0.56,-2.490044 -6.72e-4,-1.827159 0.670833,-2.075293 2.035829,-0.752287 1.247383,1.209012 1.479178,1.228989 2.436477,0.20999 L 23.457168,22.73532 22.288584,21.664938 C 20.590938,20.109955 20.718299,19.52 22.751638,19.52 c 3.181281,0 5.088362,1.829223 5.088362,4.880625 0,1.220589 0.172371,1.555292 1.44339,2.802702 l 1.44339,1.41658 2.876608,-2.863282 c 2.24113,-2.230744 2.876611,-3.059159 2.876611,-3.749954 0,-0.487669 0.146861,-0.886671 0.326359,-0.886671 0.179497,0 0.896637,-0.36 1.593641,-0.8 1.506573,-0.951057 2.274202,-1.006197 2.990404,-0.214803 0.725948,0.802163 0.666147,1.451211 -0.270404,2.934803 -0.44,0.697005 -0.8,1.414143 -0.8,1.593641 0,0.179497 -0.399001,0.326359 -0.886672,0.326359 -0.690793,0 -1.519209,0.635482 -3.749952,2.876609 l -2.863283,2.87661 1.416579,1.443392 c 1.239927,1.263392 1.586493,1.443388 2.779098,1.443388 3.044467,0 4.90423,1.936756 4.90423,5.107252 0,2.013376 -0.59478,2.13654 -2.144937,0.444163 l -1.070381,-1.168583 -0.792342,0.744365 c -1.018999,0.957299 -0.999021,1.189095 0.20999,2.436477 1.323008,1.364995 1.074874,2.036493 -0.752288,2.03583 -0.753523,-2.75e-4 -1.874042,-0.252275 -2.490042,-0.56 -1.436883,-0.717804 -2.650496,-2.968496 -2.458566,-4.559504 0.103453,-0.857574 -0.04382,-1.31286 -0.628527,-1.94311 l -0.763636,-0.823107 -3.898241,3.943107 c -4.67417,4.727971 -4.997866,4.833725 -7.383059,2.412118 z m 6.441837,-3.134502 C 27.977413,36.672483 29.44,35.046463 29.44,34.921132 c 0,-0.279449 -2.664732,-2.921133 -2.946618,-2.921133 -0.45643,0 -6.973382,6.538743 -6.973382,6.996701 0,0.666375 2.234884,2.923299 2.894751,2.923299 0.288675,0 1.987451,-1.523472 3.775056,-3.385494 z m 10.166996,2.596752 c -0.754922,-1.152154 -0.636746,-2.020547 0.418582,-3.075872 1.062125,-1.062125 2.374707,-1.224541 3.279418,-0.405789 1.092848,0.989011 0.699587,-0.685977 -0.42512,-1.810681 -0.898858,-0.898861 -1.179927,-0.998656 -2.547767,-0.904615 -1.482224,0.101901 -1.599993,0.04398 -3.278429,-1.612502 -1.855651,-1.831376 -2.443488,-1.897872 -2.443488,-0.276407 0,0.732023 0.327241,1.342749 1.196426,2.232874 1.08928,1.115526 1.196742,1.384157 1.2,2.999712 0.0032,1.597651 0.107706,1.867507 1.048624,2.708243 0.574774,0.513578 1.275338,0.933779 1.556803,0.933779 0.467639,0 0.467203,-0.06799 -0.0051,-0.788742 z M 30.4,33.019868 c 0,-0.439584 -1.899271,-2.107265 -2.133334,-1.873202 -0.121005,0.121005 0.192434,0.650507 0.696532,1.176671 C 29.868558,33.268329 30.4,33.525961 30.4,33.019868 Z m 3.995948,-5.676209 c 2.800749,-2.785205 3.862339,-3.650201 4.306717,-3.509161 0.461165,0.146368 0.744643,-0.132792 1.300173,-1.280362 0.390733,-0.807147 0.629456,-1.548509 0.530496,-1.64747 -0.09896,-0.09896 -0.840323,0.139762 -1.647472,0.530495 -1.147568,0.55553 -1.42673,0.839008 -1.280362,1.300173 0.14104,0.444378 -0.723955,1.505968 -3.509161,4.306716 -3.447058,3.466295 -3.91851,3.995949 -3.556849,3.995949 0.07672,0 1.812125,-1.663353 3.856458,-3.69634 z m -4.776632,2.385085 c 0.119893,-0.193991 -0.552184,-1.130723 -1.501115,-2.092231 -1.656479,-1.678436 -1.714404,-1.796207 -1.612501,-3.278429 0.09404,-1.367842 -0.0058,-1.648909 -0.904615,-2.547769 -1.124706,-1.124705 -2.799695,-1.517966 -1.810682,-0.425118 0.818753,0.904711 0.656337,2.217293 -0.405788,3.279418 -1.055327,1.055327 -1.923719,1.173503 -3.075874,0.418581 C 19.58799,24.610942 19.52,24.610507 19.52,25.078148 c 0,0.281465 0.4202,0.982026 0.933779,1.556803 0.841938,0.942264 1.109285,1.045398 2.718221,1.048603 1.632291,0.0033 1.886457,0.105569 2.980887,1.2 0.884598,0.884597 1.463985,1.196446 2.222894,1.196446 0.564546,0 1.124137,-0.158065 1.243535,-0.351256 z"
       style="fill:#98c076;fill-opacity:1;stroke-width:0.32" />
  </g>
</svg>
