<svg xmlns="http://www.w3.org/2000/svg" xmlns:svg="http://www.w3.org/2000/svg" id="svg830" width="61.44" height="61.44" version="1.1" viewBox="0 0 61.44 61.44"><metadata id="metadata836"/><g id="g838"><path style="fill:#f5f5f5;fill-opacity:1;stroke-width:.32" id="path844" d="M 27.04,58.547826 C 15.253195,56.743122 5.899725,48.312271 3.2025887,37.061724 2.3281313,33.414105 2.3326478,28.012001 3.2132419,24.32 5.2512111,15.775556 11.761983,8.1729384 19.833297,4.91279 23.719543,3.3430655 26.468695,2.8021214 30.56,2.8021214 c 4.091305,0 6.840457,0.5409441 10.726703,2.1106686 10.302055,4.1611846 17.375776,14.667365 17.375776,25.807209 0,11.139847 -7.073721,21.646026 -17.375776,25.80721 C 36.751321,58.359132 31.070155,59.164892 27.04,58.547826 Z"/><path style="fill:#282c34;fill-opacity:1;stroke-width:.32" id="path842" d="M 21.846302,41.445571 C 21.277768,41.198415 20.522307,40.520051 20.167498,39.938095 19.559858,38.941449 19.522323,38.340121 19.521196,29.584 19.52032,22.77906 19.6229,20.185099 19.904,19.904 c 0.523031,-0.523032 6.388968,-0.523032 6.912,0 0.260835,0.260835 0.384,1.773062 0.384,4.71478 v 4.33078 l 3.605007,-3.59478 C 32.787759,23.377651 34.635759,21.76 34.911673,21.76 c 0.65337,0 4.768326,4.114956 4.768326,4.768326 0,0.275913 -1.617651,2.123913 -3.59478,4.106666 l -3.594781,3.605007 h 4.330781 c 2.941718,0 4.453945,0.123165 4.71478,0.384 0.614698,0.614698 0.513063,6.161223 -0.124582,6.798868 -0.441213,0.441212 -1.511517,0.497225 -8.08,0.422857 -5.645748,-0.06392 -7.552679,-0.182633 -7.497741,-0.466755 0.0531,-0.274624 -0.234452,-0.252285 -1.029722,0.08 -1.342566,0.56096 -1.639556,0.559616 -2.957652,-0.01341 z M 29.76,38.630515 v -1.630253 l -0.897511,0.859869 c -0.49363,0.472928 -1.065932,0.859868 -1.271782,0.859868 -0.20585,0 -0.579363,0.396 -0.83003,0.88 l -0.455759,0.88 1.727541,-0.109616 L 29.76,40.260767 Z m 5.119999,-0.710516 v -2.4 h -1.44 c -0.889168,0 -1.44,-0.143744 -1.44,-0.375779 0,-0.206681 -0.368562,-0.02954 -0.819028,0.393655 -0.450466,0.423193 -0.666466,0.820294 -0.48,0.882448 0.187771,0.06259 0.339028,0.957721 0.339028,2.006342 v 1.893334 h 1.92 1.92 z m 5.44,0 v -2.4 h -1.92 -1.92 v 2.4 2.4 h 1.92 1.92 z M 24.137142,39.177142 C 24.413714,38.900572 24.64,38.550857 24.64,38.399999 c 0,-0.150857 -0.226286,-0.500572 -0.502858,-0.777142 -0.276571,-0.276573 -0.626285,-0.502858 -0.777142,-0.502858 -0.150858,0 -0.500572,0.226285 -0.777143,0.502858 -0.276572,0.27657 -0.502857,0.626285 -0.502857,0.777142 0,0.150858 0.226285,0.500573 0.502857,0.777143 0.276571,0.276573 0.626285,0.502857 0.777143,0.502857 0.150857,0 0.500571,-0.226284 0.777142,-0.502857 z m 5.262005,-3.766503 1.079147,-1.121888 -0.691875,-0.971648 c -0.380531,-0.534406 -1.118147,-1.27518 -1.639147,-1.646166 L 27.2,30.996419 v 3.073049 c 0,3.472224 0.09409,3.529603 2.199147,1.341171 z M 25.6,33.74598 v -2.094019 l -2.32,0.09402 -2.32,0.09402 -0.09914,1.559341 c -0.150241,2.363095 -0.07114,2.440659 2.489096,2.440659 H 25.6 Z m 7.525555,-2.071671 1.255443,-1.285691 -1.670051,-1.670051 -1.670051,-1.670052 -1.352053,1.352053 -1.352053,1.352053 1.579576,1.603689 c 0.868766,0.882029 1.663763,1.603689 1.766661,1.603689 0.102897,0 0.752035,-0.57856 1.442528,-1.28569 z M 25.6,28.48 v -1.92 h -2.4 -2.4 v 1.706666 c 0,0.938667 0.096,1.802667 0.213333,1.92 C 21.130666,30.304 22.210666,30.4 23.413333,30.4 H 25.6 Z m 11.365555,-0.645691 1.255443,-1.285691 -1.670051,-1.670051 -1.670052,-1.670052 -1.352051,1.352053 -1.352054,1.352053 1.579574,1.603689 c 0.868768,0.882029 1.663767,1.60369 1.766663,1.60369 0.102896,0 0.752035,-0.578561 1.442528,-1.285691 z M 25.6,22.86598 v -2.094018 l -2.32,0.09402 -2.32,0.09402 -0.09527,2 -0.09527,2 H 23.18473 25.6 Z"/></g></svg>