<?xml version="1.0" encoding="UTF-8" standalone="no"?>
<svg
   xmlns:dc="http://purl.org/dc/elements/1.1/"
   xmlns:cc="http://creativecommons.org/ns#"
   xmlns:rdf="http://www.w3.org/1999/02/22-rdf-syntax-ns#"
   xmlns:svg="http://www.w3.org/2000/svg"
   xmlns="http://www.w3.org/2000/svg"
   xmlns:sodipodi="http://sodipodi.sourceforge.net/DTD/sodipodi-0.dtd"
   xmlns:inkscape="http://www.inkscape.org/namespaces/inkscape"
   inkscape:export-ydpi="300"
   inkscape:export-xdpi="300"
   inkscape:export-filename="C:\Users\kiera\Documents\GitHub\Base24.github.io\images\shorticons\readme.png"
   inkscape:version="1.0 (4035a4fb49, 2020-05-01)"
   sodipodi:docname="readme.svg"
   viewBox="0 0 61.439999 61.439999"
   height="61.439999"
   width="61.439999"
   id="svg846"
   version="1.1">
  <metadata
     id="metadata852">
    <rdf:RDF>
      <cc:Work
         rdf:about="">
        <dc:format>image/svg+xml</dc:format>
        <dc:type
           rdf:resource="http://purl.org/dc/dcmitype/StillImage" />
        <dc:title></dc:title>
      </cc:Work>
    </rdf:RDF>
  </metadata>
  <defs
     id="defs850" />
  <sodipodi:namedview
     inkscape:current-layer="g854"
     inkscape:window-maximized="1"
     inkscape:window-y="-9"
     inkscape:window-x="-9"
     inkscape:cy="30.719999"
     inkscape:cx="30.719999"
     inkscape:zoom="13.509115"
     showgrid="false"
     id="namedview848"
     inkscape:window-height="1001"
     inkscape:window-width="1920"
     inkscape:pageshadow="2"
     inkscape:pageopacity="0"
     guidetolerance="10"
     gridtolerance="10"
     objecttolerance="10"
     borderopacity="1"
     bordercolor="#666666"
     pagecolor="#ffffff" />
  <g
     id="g854"
     inkscape:label="Image"
     inkscape:groupmode="layer">
    <path
       id="path1421"
       d="M 27.04,58.547826 C 15.253195,56.743122 5.899725,48.312271 3.2025887,37.061724 2.3281313,33.414105 2.3326478,28.012001 3.2132419,24.32 5.2512111,15.775556 11.761983,8.1729384 19.833297,4.91279 23.719543,3.3430655 26.468695,2.8021214 30.56,2.8021214 c 4.091305,0 6.840457,0.5409441 10.726703,2.1106686 10.302055,4.1611846 17.375776,14.667365 17.375776,25.807209 0,11.139847 -7.073721,21.646026 -17.375776,25.80721 C 36.751321,58.359132 31.070155,59.164892 27.04,58.547826 Z"
       style="fill:#f5f5f5;fill-opacity:1;stroke-width:0.32" />
    <path
       id="path1419"
       d="m 28.32,41.87846 c -1.408,-0.34936 -4.193705,-0.977017 -6.190455,-1.394793 -1.99675,-0.41778 -3.892152,-0.996429 -4.212003,-1.285892 -0.520489,-0.471036 -0.579693,-1.103324 -0.563874,-6.022035 0.01375,-4.276773 0.122172,-5.655438 0.488806,-6.21574 0.259123,-0.396 0.584383,-0.72 0.722802,-0.72 0.138418,0 2.806147,-1.381386 5.928287,-3.069746 4.559509,-2.465647 5.872407,-3.041713 6.671527,-2.927293 2.099421,0.300598 10.950541,2.191229 11.657693,2.490125 1.621373,0.685312 0.808176,1.294125 -8.812227,6.597423 L 32.021113,30.4272 27.930556,29.621357 c -2.249806,-0.443213 -5.157867,-1.032115 -6.462357,-1.30867 -1.92883,-0.408916 -2.420977,-0.425306 -2.6351,-0.08776 -0.775402,1.222358 -0.122689,1.747405 3.097583,2.49172 1.578125,0.364758 3.121318,0.740436 3.429318,0.834837 0.430116,0.131831 0.56,-0.01453 0.56,-0.631038 0,-1.027573 0.274504,-1.179524 1.710014,-0.946573 1.07757,0.174866 1.169986,0.275023 1.169986,1.267993 0,0.592972 0.108,1.081567 0.24,1.085766 0.132,0.0042 0.775771,0.13208 1.430602,0.284179 1.075127,0.249725 1.432048,0.137126 3.679999,-1.160931 4.531146,-2.616467 8.31305,-4.570883 8.844912,-4.570883 0.309667,0 0.524486,0.259922 0.524486,0.634609 0,0.443907 -0.503497,0.889751 -1.67552,1.48366 -0.921539,0.466978 -2.181539,1.167852 -2.8,1.557498 -0.618464,0.389646 -2.495145,1.442352 -4.170406,2.339346 -2.827024,1.513693 -3.137492,1.609674 -4.320001,1.335526 C 28.821366,33.82894 28.8,33.832953 28.8,34.559999 c 0,0.671418 -0.773802,0.88016 -1.129464,0.304688 -0.113979,-0.184422 -0.510509,-0.292422 -0.881178,-0.24 -0.492694,0.06968 -0.725352,-0.118713 -0.865091,-0.700505 -0.172474,-0.718077 -0.471168,-0.849056 -3.057707,-1.340855 -1.576608,-0.299769 -3.103154,-0.553654 -3.392324,-0.564182 -0.679841,-0.02476 -0.999946,0.822778 -0.595899,1.577747 0.333335,0.622842 1.492519,0.941539 8.827582,2.426976 l 3.989181,0.807856 1.672448,-0.882877 c 0.91985,-0.48558 2.032451,-1.118265 2.472451,-1.405968 0.44,-0.287699 1.736,-1.029171 2.88,-1.647715 1.144,-0.618544 2.541754,-1.396041 3.106119,-1.727775 0.786537,-0.462326 1.113997,-0.515275 1.402489,-0.22678 0.207005,0.207004 0.298368,0.579652 0.203027,0.828106 -0.09534,0.248456 -2.759455,1.898859 -5.920255,3.667566 l -5.746908,3.215827 -2.522236,-0.619939 c -6.61999,-1.627133 -9.867926,-2.172096 -10.315125,-1.730755 -0.658205,0.649587 -0.150627,1.694912 1.008179,2.076285 0.563591,0.185481 3.444517,0.831804 6.402057,1.436272 l 5.377347,1.099033 3.742654,-2.112553 c 6.596688,-3.72352 7.116422,-3.983639 7.593676,-3.8005 0.647322,0.2484 0.589293,1.134909 -0.09102,1.390634 -0.308,0.115776 -1.28,0.664672 -2.16,1.21977 -0.88,0.555097 -2.752,1.633011 -4.16,2.395369 -1.408,0.762355 -2.992,1.6484 -3.52,1.968992 -1.174657,0.713226 -1.569516,0.705309 -4.799999,-0.09626 z"
       style="fill:#62aded;fill-opacity:1;stroke-width:0.32" />
  </g>
</svg>
