<?xml version="1.0" encoding="UTF-8" standalone="no"?>
<svg
   xmlns:dc="http://purl.org/dc/elements/1.1/"
   xmlns:cc="http://creativecommons.org/ns#"
   xmlns:rdf="http://www.w3.org/1999/02/22-rdf-syntax-ns#"
   xmlns:svg="http://www.w3.org/2000/svg"
   xmlns="http://www.w3.org/2000/svg"
   xmlns:sodipodi="http://sodipodi.sourceforge.net/DTD/sodipodi-0.dtd"
   xmlns:inkscape="http://www.inkscape.org/namespaces/inkscape"
   inkscape:export-ydpi="300"
   inkscape:export-xdpi="300"
   inkscape:export-filename="C:\Users\kiera\Documents\GitHub\Base24.github.io\images\shorticons\styles.png"
   inkscape:version="1.0 (4035a4fb49, 2020-05-01)"
   sodipodi:docname="styles.svg"
   viewBox="0 0 61.439999 61.439999"
   height="61.439999"
   width="61.439999"
   id="svg1423"
   version="1.1">
  <metadata
     id="metadata1429">
    <rdf:RDF>
      <cc:Work
         rdf:about="">
        <dc:format>image/svg+xml</dc:format>
        <dc:type
           rdf:resource="http://purl.org/dc/dcmitype/StillImage" />
        <dc:title></dc:title>
      </cc:Work>
    </rdf:RDF>
  </metadata>
  <defs
     id="defs1427" />
  <sodipodi:namedview
     inkscape:current-layer="g1431"
     inkscape:window-maximized="1"
     inkscape:window-y="-9"
     inkscape:window-x="-9"
     inkscape:cy="30.719999"
     inkscape:cx="30.719999"
     inkscape:zoom="13.509115"
     showgrid="false"
     id="namedview1425"
     inkscape:window-height="1001"
     inkscape:window-width="1920"
     inkscape:pageshadow="2"
     inkscape:pageopacity="0"
     guidetolerance="10"
     gridtolerance="10"
     objecttolerance="10"
     borderopacity="1"
     bordercolor="#666666"
     pagecolor="#ffffff" />
  <g
     id="g1431"
     inkscape:label="Image"
     inkscape:groupmode="layer">
    <path
       id="path1998"
       d="M 27.04,58.547826 C 15.253195,56.743122 5.899725,48.312271 3.2025887,37.061724 2.3281313,33.414105 2.3326478,28.012001 3.2132419,24.32 5.2512111,15.775556 11.761983,8.1729384 19.833297,4.91279 23.719543,3.3430655 26.468695,2.8021214 30.56,2.8021214 c 4.091305,0 6.840457,0.5409441 10.726703,2.1106686 10.302055,4.1611846 17.375776,14.667365 17.375776,25.807209 0,11.139847 -7.073721,21.646026 -17.375776,25.80721 C 36.751321,58.359132 31.070155,59.164892 27.04,58.547826 Z"
       style="fill:#f5f5f5;fill-opacity:1;stroke-width:0.32" />
    <path
       id="path1996"
       d="m 19.395659,40.544751 c -0.634431,-0.634432 -0.76675,-1.192614 -0.964977,-4.070736 -0.237628,-3.450188 -0.455296,-4.027136 -1.697531,-4.499432 -1.065689,-0.405174 -1.033602,-2.116193 0.04739,-2.527186 1.149676,-0.437106 1.417289,-1.191284 1.662983,-4.686565 0.203108,-2.889446 0.297854,-3.231443 1.124137,-4.057727 0.727256,-0.727255 1.136141,-0.883007 2.107336,-0.80272 1.140557,0.09429 1.210312,0.163791 1.304317,1.299615 0.0948,1.145393 0.05503,1.2 -0.873903,1.2 -1.152916,0 -1.238532,0.252627 -1.374455,4.055563 -0.08003,2.239177 -0.202864,2.731994 -0.853582,3.424652 l -0.760099,0.809087 0.841362,0.999901 C 20.726404,32.601641 20.8,32.933279 20.8,35.480553 c 0,2.975786 0.246619,3.559446 1.504,3.559446 0.627809,0 0.736,0.164637 0.736,1.12 0,1.115735 -0.0055,1.12 -1.454546,1.12 -1.090689,0 -1.638469,-0.183923 -2.189795,-0.735248 z m 7.49248,0.103389 C 26.132238,39.892239 26.004457,39.342399 25.807925,35.999999 25.622539,32.847167 25.470381,32.448975 24.294344,32.039007 23.534911,31.774266 23.36,31.528979 23.36,30.728726 c 0,-0.731823 0.188204,-1.056122 0.733151,-1.26331 1.311289,-0.498552 1.567659,-1.167375 1.783608,-4.653108 0.248546,-4.011902 0.699521,-4.735029 2.983016,-4.783195 1.365159,-0.0288 1.381294,-0.01627 1.478171,1.1479 0.08986,1.079858 0.02383,1.185514 -0.8,1.28 -0.89368,0.102497 -0.898928,0.116926 -1.1045,3.036993 C 28.240292,28.237679 27.52945,30.4 26.820649,30.4 c -0.132749,0 0.104676,0.509914 0.527611,1.133144 0.736493,1.085284 1.030471,2.515828 1.213862,5.906855 0.07087,1.310356 0.157104,1.449117 0.957878,1.541255 0.769478,0.08854 0.88,0.239251 0.88,1.2 0,1.088883 -0.01292,1.098745 -1.44,1.098745 -1.007151,0 -1.629932,-0.189929 -2.071861,-0.631859 z m 3.954754,0.170551 c -0.303698,-0.791421 0.01705,-1.606256 0.680781,-1.72945 1.173615,-0.217837 1.436117,-0.713846 1.443961,-2.728422 0.01014,-2.60818 0.423536,-4.257284 1.30142,-5.191749 C 34.666435,30.746081 34.83902,30.4 34.652582,30.4 c -0.845722,0 -1.455383,-1.759098 -1.651978,-4.766563 l -0.200605,-3.06883 -0.96,-0.165446 c -0.850846,-0.146635 -0.96,-0.291937 -0.96,-1.277922 0,-1.25378 0.449466,-1.478259 2.274378,-1.135903 1.632675,0.306292 2.171331,1.385327 2.396301,4.800264 0.237488,3.604966 0.451577,4.282615 1.430649,4.528346 0.630292,0.158193 0.778672,0.398921 0.778672,1.263283 0,0.848573 -0.180166,1.154199 -0.877388,1.48837 -1.037533,0.497277 -1.271613,1.343626 -1.324752,4.789847 -0.03306,2.144313 -0.142832,2.580205 -0.866304,3.44 -0.696157,0.827334 -1.055456,0.984553 -2.250045,0.984553 -0.942843,0 -1.481212,-0.155356 -1.598617,-0.461308 z m 7.359999,0 c -0.352589,-0.918829 0.03778,-1.612525 1.001015,-1.778855 0.944054,-0.163014 0.958934,-0.197289 1.181843,-2.722464 0.326435,-3.697955 0.512361,-4.482171 1.212966,-5.11621 0.619847,-0.560956 0.618448,-0.575914 -0.138125,-1.475048 -0.604236,-0.718093 -0.807241,-1.429642 -0.969235,-3.39723 -0.112701,-1.368886 -0.233363,-2.775958 -0.268134,-3.126826 -0.04338,-0.437689 -0.36457,-0.6898 -1.023223,-0.803143 -0.85174,-0.146571 -0.96,-0.29115 -0.96,-1.282058 0,-1.085963 0.03778,-1.119587 1.365927,-1.215546 1.144144,-0.08266 1.512563,0.04795 2.269049,0.804435 0.835828,0.835827 0.92033,1.152927 1.134016,4.255528 0.231811,3.365736 0.649453,4.478726 1.680605,4.478726 0.277258,0 0.430403,0.392303 0.430403,1.102538 0,0.88749 -0.171645,1.184564 -0.88,1.523071 -0.752963,0.359824 -0.910077,0.674163 -1.088352,2.177462 -0.114595,0.966311 -0.222595,2.501879 -0.24,3.412375 -0.04515,2.361817 -1.128672,3.624553 -3.110137,3.624553 -0.942842,0 -1.481213,-0.155356 -1.598618,-0.461308 z"
       style="fill:#98c076;fill-opacity:1;stroke-width:0.32" />
  </g>
</svg>
