<?xml version="1.0" encoding="UTF-8" standalone="no"?>
<svg
   xmlns:dc="http://purl.org/dc/elements/1.1/"
   xmlns:cc="http://creativecommons.org/ns#"
   xmlns:rdf="http://www.w3.org/1999/02/22-rdf-syntax-ns#"
   xmlns:svg="http://www.w3.org/2000/svg"
   xmlns="http://www.w3.org/2000/svg"
   xmlns:sodipodi="http://sodipodi.sourceforge.net/DTD/sodipodi-0.dtd"
   xmlns:inkscape="http://www.inkscape.org/namespaces/inkscape"
   inkscape:export-ydpi="300"
   inkscape:export-xdpi="300"
   inkscape:export-filename="C:\Users\kiera\Documents\GitHub\Base24.github.io\images\page\name.png"
   inkscape:version="1.0 (4035a4fb49, 2020-05-01)"
   sodipodi:docname="name.svg"
   viewBox="0 0 163.84 37.119999"
   height="37.119999"
   width="163.84"
   id="svg830"
   version="1.1">
  <metadata
     id="metadata836">
    <rdf:RDF>
      <cc:Work
         rdf:about="">
        <dc:format>image/svg+xml</dc:format>
        <dc:type
           rdf:resource="http://purl.org/dc/dcmitype/StillImage" />
        <dc:title></dc:title>
      </cc:Work>
    </rdf:RDF>
  </metadata>
  <defs
     id="defs834" />
  <sodipodi:namedview
     inkscape:current-layer="g860"
     inkscape:window-maximized="1"
     inkscape:window-y="-9"
     inkscape:window-x="-9"
     inkscape:cy="13.649815"
     inkscape:cx="91.887433"
     inkscape:zoom="8.2305534"
     showgrid="false"
     id="namedview832"
     inkscape:window-height="1001"
     inkscape:window-width="1920"
     inkscape:pageshadow="2"
     inkscape:pageopacity="0"
     guidetolerance="10"
     gridtolerance="10"
     objecttolerance="10"
     borderopacity="1"
     bordercolor="#666666"
     pagecolor="#ffffff" />
  <g
     id="g838"
     inkscape:label="Image"
     inkscape:groupmode="layer">
    <g
       id="g860">
      <path
         id="path878"
         d="M 0,18.559999 V 0 h 81.92 81.92 v 18.559999 18.56 H 81.92 0 Z m 91.033846,10.844523 0.953847,-0.924523 -0.953847,-0.0049 c -0.524614,-0.0027 -1.144204,-0.125595 -1.376864,-0.27311 -0.45975,-0.291502 -0.514604,0.08534 1.077482,-7.401991 0.467802,-2.2 1.042931,-4.935999 1.278067,-6.079999 1.530295,-7.4453749 1.505517,-7.3600002 2.136151,-7.3600002 0.482172,0 2.491318,-1.5615344 2.491318,-1.9362851 0,-0.1674243 -1.20168,-0.3037148 -2.677866,-0.3037148 H 91.284269 L 91.09103,6.3199998 C 90.833088,7.9217915 90.262112,10.540231 88.666198,17.44 c -0.732755,3.167999 -1.541225,6.767999 -1.796598,7.999999 -0.255373,1.232 -0.60607,2.816 -0.779325,3.52 -0.173254,0.704 -0.318441,1.371418 -0.32264,1.483151 -0.0042,0.111733 0.964365,0.131769 2.152365,0.04452 1.83215,-0.134551 2.304778,-0.298953 3.113846,-1.083151 z m 28.083334,0.701209 c 0.13045,-0.116653 0.36996,-0.854164 0.53224,-1.638914 0.5714,-2.763198 1.92639,-8.913049 2.74679,-12.466817 0.30473,-1.32 0.66643,-2.904 0.80379,-3.52 0.13736,-0.616 0.49781,-2.2 0.801,-3.5200002 0.3032,-1.32 0.6238,-2.724 0.71244,-3.12 0.15301,-0.6835686 0.0656,-0.7199999 -1.72822,-0.7199999 -1.63064,0 -2.04112,0.1296902 -2.99731,0.9469948 l -1.10791,0.9469952 1.39731,0.013005 c 1.28041,0.011917 1.38393,0.073237 1.23753,0.7330051 -0.0879,0.396 -0.62448,2.952 -1.19245,5.68 -1.65731,7.960132 -1.808,8.651818 -2.54468,11.679999 -0.69126,2.841448 -0.72177,2.893955 -2.27917,3.92246 -0.8682,0.573352 -1.57854,1.183516 -1.57854,1.355918 0,0.342337 4.78863,0.07269 5.19718,-0.292646 z M 98.00631,25.316292 c 1.527332,0.373229 2.97773,0.601557 3.22311,0.507396 0.24538,-0.09416 0.96371,-1.096696 1.59629,-2.227855 0.94165,-1.68382 1.11574,-2.268678 0.96035,-3.226243 -0.23457,-1.445461 -0.50969,-1.467586 -1.34963,-0.108536 -1.20564,1.950762 -1.6127,2.160322 -3.340273,1.719614 L 97.569651,21.591252 100.44613,18.2964 c 2.52476,-2.891975 2.92156,-3.512018 3.24518,-5.070889 C 104.51102,9.2770068 102.15858,7.0226488 98.718474,8.4600151 96.97152,9.189938 95.753782,10.649475 95.504435,12.312246 95.232061,14.128579 95.664637,14.72 97.26551,14.72 h 1.187146 l -0.139363,-1.680509 c -0.113632,-1.370252 -0.0247,-1.784281 0.481734,-2.242591 0.594253,-0.537791 0.646986,-0.533471 1.220253,0.09998 0.73917,0.816774 0.72158,2.7117 -0.03903,4.204807 -0.296515,0.582069 -1.204474,1.783409 -2.017687,2.669644 -2.14743,2.340261 -3.786246,4.30227 -4.727385,5.659684 -0.675677,0.974532 -0.785815,1.404034 -0.605927,2.362921 l 0.21985,1.171901 1.192122,-1.164074 1.192118,-1.164075 z m -36.529184,0.09645 C 62.745642,24.481572 63.04,24.371352 63.04,24.827548 c 0,0.309132 0.227683,0.813646 0.505965,1.121143 0.480528,0.530975 0.56175,0.526171 1.615475,-0.09554 0.610234,-0.360045 1.776509,-1.320295 2.591725,-2.133888 0.958057,-0.956152 1.276016,-1.163432 0.899129,-0.586152 -0.733952,1.124202 -0.330505,2.203164 1.100519,2.943175 0.926902,0.47932 1.063369,0.465799 2.493875,-0.247089 C 74.370611,24.77074 75.84,22.766518 75.84,20.927973 c 0,-1.214546 -0.186947,-1.625087 -1.28,-2.810909 -1.410944,-1.530694 -1.512755,-1.845529 -0.790618,-2.44485 0.405261,-0.336337 0.618042,-0.285279 1.237898,0.297046 l 0.748518,0.703197 0.8421,-1.000781 C 77.584387,14.4993 77.593565,14.44165 76.941856,13.511202 76.560259,12.966399 76.126234,12.8 75.086797,12.8 73.936077,12.8 73.555578,12.982345 72.582778,14 71.080307,15.571747 70.72,16.325831 70.72,17.898596 c 0,1.084291 0.212941,1.520092 1.28,2.619623 0.704,0.725424 1.28,1.418436 1.28,1.540027 0,0.121591 -0.300429,0.543545 -0.667616,0.937676 C 71.68119,23.995442 71.04,23.400762 71.04,21.537591 v -1.424043 l -0.87799,0.690627 -0.877991,0.690627 -0.167478,-0.709456 -0.167479,-0.709455 -1.048048,0.881873 c -0.576425,0.485029 -1.115651,0.814266 -1.198281,0.731636 -0.283847,-0.283847 1.088742,-6.30851 1.656064,-7.268908 0.31216,-0.528441 0.490576,-1.037787 0.396483,-1.13188 -0.358608,-0.358607 -3.881792,-0.840463 -4.750358,-0.649693 -1.215063,0.266872 -3.648106,2.194963 -4.145828,3.285406 -1.065526,2.334415 -1.415881,3.92433 -1.436809,6.520255 -0.01846,2.289193 0.08254,2.880724 0.587312,3.44 0.335277,0.371481 0.675984,0.675419 0.757126,0.675419 0.08114,0 0.850826,-0.516264 1.710403,-1.147254 z m -0.02864,-4.331735 c 0.01181,-1.949539 1.29841,-5.526612 2.03912,-5.66926 1.03305,-0.198947 1.255751,0.404013 0.827645,2.240845 -0.696701,2.989272 -0.810269,3.236963 -1.852745,4.040895 L 61.44,22.482021 61.44848,21.08101 Z m 20.292186,4.986442 c 0.648355,-0.2709 1.961942,-1.25105 2.919078,-2.178111 1.488634,-1.441851 1.74025,-1.856446 1.74025,-2.86745 0,-0.650039 -0.108,-1.180336 -0.24,-1.178439 -0.132,0.0019 -0.816,0.552481 -1.52,1.223521 -0.704,0.671039 -1.666842,1.472047 -2.139648,1.780018 -0.855462,0.55722 -0.862122,0.555159 -1.368218,-0.423521 -0.296748,-0.57385 -0.369132,-0.983468 -0.173788,-0.983468 0.184131,0 1.318928,-0.972 2.521772,-2.16 2.27721,-2.249103 2.77377,-3.372072 2.29361,-5.186987 -0.30992,-1.171431 -1.709523,-1.783527 -2.926003,-1.279644 -1.695245,0.702194 -3.638947,3.224255 -4.223763,5.480568 -1.183466,4.566013 -1.009735,6.37341 0.725353,7.546063 1.264791,0.854804 0.959411,0.825758 2.391357,0.227453 z M 81.468099,17.6 c 0.223031,-0.796021 1.053773,-2.24 1.288704,-2.24 0.43881,0 -0.01344,1.394279 -0.694825,2.142155 L 81.243952,18.4 Z m 29.809041,8.323526 1.31735,-0.636474 -0.18385,-1.781297 c -0.16842,-1.63186 -0.12599,-1.796428 0.50581,-1.961648 0.56946,-0.148916 2.60355,-2.629197 2.60355,-3.17465 0,-0.08715 -0.52304,-0.06034 -1.16231,0.05959 l -1.16232,0.218052 0.22477,-1.883551 c 0.12363,-1.03595 0.34996,-2.387548 0.50296,-3.003548 0.64507,-2.597097 1.32741,-6.4561538 1.16948,-6.6140908 -0.43046,-0.4304598 -2.84776,1.4451005 -4.14409,3.2153588 -2.63083,3.592645 -5.76191,8.346071 -6.22156,9.445194 -0.59236,1.416493 -0.26984,1.622233 2.55307,1.628637 2.45241,0.0056 2.49489,0.07043 1.72389,2.632255 -0.45019,1.495886 -0.2295,2.492645 0.55191,2.492645 0.22219,0 0.9968,-0.286413 1.72134,-0.636473 z m -2.88715,-7.560205 c -0.17306,-0.173057 0.56927,-1.610894 1.05492,-2.043321 0.0988,-0.088 0.5116,-0.664 0.91727,-1.28 0.40566,-0.616 0.66904,-0.900304 0.58528,-0.631786 -0.0838,0.268517 -0.32341,1.312517 -0.53256,2.32 -0.32743,1.577224 -0.48088,1.831785 -1.10425,1.831785 -0.39819,0 -0.81249,-0.0885 -0.92066,-0.196678 z M 52.64,24.899659 c 1.839229,-0.968484 3.488816,-2.576675 3.980374,-3.880492 0.580874,-1.540718 0.41161,-3.543781 -0.400588,-4.740626 l -0.740218,-1.090769 0.864214,-1.191812 c 2.218394,-3.059327 0.98376,-6.3159602 -2.394464,-6.3159602 -0.959129,0 -1.04592,-0.076628 -0.907417,-0.8011552 L 53.19505,6.0776894 51.873811,6.6692264 C 51.147126,6.994572 50.45824,7.3550916 50.34295,7.4703816 c -0.115289,0.1152902 -0.482534,0.2096182 -0.816099,0.2096182 -1.154022,0 -4.074259,1.6435503 -5.146995,2.8968042 -0.592406,0.69209 -1.244221,1.816144 -1.448477,2.497897 -0.391907,1.308064 -0.485795,3.906528 -0.182038,5.038071 0.178899,0.666429 0.191494,0.66722 1.335824,0.08381 1.734393,-0.884245 1.838377,-1.083136 1.724461,-3.298342 -0.100784,-1.959745 -0.06061,-2.084241 1.080083,-3.34685 0.651619,-0.721265 1.456006,-1.31139 1.787526,-1.31139 0.33152,0 0.602765,0.03605 0.602765,0.08012 0,0.04407 -0.22039,1.088066 -0.489757,2.32 -0.269366,1.231934 -0.69744,3.247881 -0.951277,4.479881 -0.922003,4.474949 -1.3164,5.243372 -2.945862,5.739555 -0.652829,0.19879 -2.653104,2.383085 -2.653104,2.89718 0,0.123551 1.98,0.170817 4.4,0.105037 4.007827,-0.108941 4.542608,-0.194694 6,-0.962113 z m -3.203923,-3.076335 c 0.442835,-0.669171 0.982957,-1.965171 1.200269,-2.88 0.42782,-1.80103 0.444444,-1.814471 1.66856,-1.349063 1.092355,0.415313 1.528528,1.598653 1.088745,2.953765 -0.534246,1.64618 -1.666518,2.491973 -3.336035,2.491973 h -1.426698 z m 2.207619,-7.63391 c 0.102022,-0.324178 0.332944,-1.370431 0.513158,-2.325008 0.384432,-2.0362699 0.494752,-2.1938811 1.218493,-1.740816 0.843795,0.528216 0.838474,2.06319 -0.01152,3.3245 -0.828864,1.229951 -2.037885,1.751003 -1.720128,0.741324 z"
         style="fill:#fbfdfa;stroke-width:0.32" />
      <path
         sodipodi:nodetypes="ssssscsscssssss"
         id="path876"
         d="m 113.92,30.398377 c 0,-0.172402 0.71034,-0.782566 1.57854,-1.355918 1.88875,-1.247324 1.72448,-0.716005 4.82385,-15.602459 0.56797,-2.728 1.10458,-5.2840002 1.19245,-5.6800002 0.1464,-0.6597683 0.0429,-0.721088 -1.23753,-0.7330051 L 118.88,7.0139899 119.98791,6.0669947 c 0.95619,-0.8173046 1.36667,-0.9469948 2.99731,-0.9469948 1.79379,0 1.88123,0.036431 1.72822,0.7199999 -0.0886,0.396 -0.40924,1.8 -0.71244,3.12 C 123.69781,10.28 123.33736,11.864 123.2,12.48 c -0.13736,0.616 -0.49906,2.2 -0.80379,3.52 -0.8204,3.553768 -2.17539,9.703619 -2.74679,12.466817 -0.16228,0.78475 -0.40179,1.522261 -0.53224,1.638914 -0.40855,0.365341 -5.19718,0.634983 -5.19718,0.292646 z"
         style="fill:#a7aebb;stroke-width:0.32" />
      <path
         id="path874"
         d="m 92.804762,25.577004 c -0.0036,-1.110167 0.207465,-1.738763 0.875238,-2.606457 1.043424,-1.355812 3.707843,-4.471726 4.993034,-5.839116 2.053776,-2.185132 2.665716,-4.731708 1.501246,-6.247307 l -0.611499,-0.795876 -0.849267,0.795876 c -0.855005,0.801249 -0.935098,1.685288 -0.298653,3.296331 0.203069,0.514025 0.07258,0.568959 -1.140186,0.48 -1.652973,-0.121249 -2.086333,-0.685113 -1.780294,-2.316432 0.283475,-1.51105 2.517309,-3.8343608 3.965094,-4.1239179 2.676525,-0.535305 4.268565,0.8470307 4.262915,3.7013929 -0.004,2.255089 -0.64886,3.427378 -3.61682,6.579765 C 98.727507,19.964958 97.6,21.28846 97.6,21.442378 c 0,0.409634 0.312928,0.531864 1.980285,0.7735 l 1.500285,0.217423 1.1276,-1.674391 c 0.70932,-1.053281 1.18006,-1.504594 1.26902,-1.216651 0.0778,0.251757 0.22959,0.727676 0.33736,1.057598 0.2316,0.708996 -1.84624,4.620293 -2.61024,4.913466 -0.43876,0.168368 -1.805772,-0.02785 -5.345891,-0.767352 -0.812329,-0.169688 -1.086224,-0.02573 -1.995241,1.04867 l -1.053658,1.245358 -0.0048,-1.462995 z"
         style="fill:#c374d9;stroke-width:0.32" />
      <path
         id="path872"
         d="m 85.934528,30.101264 c 0.108854,-0.275696 0.387494,-1.437265 0.619197,-2.581265 0.231702,-1.144 0.666889,-3.16 0.967081,-4.48 0.300192,-1.32 0.727732,-3.264 0.95008,-4.32 0.52768,-2.506075 2.778938,-12.6833691 2.919895,-13.1999991 0.07604,-0.2787002 0.906653,-0.4 2.739046,-0.4 h 2.629911 L 95.864803,6.0541102 C 95.372589,6.5678705 94.637638,7.0716049 94.231578,7.1735198 93.424707,7.3760312 93.552669,6.9509829 91.815197,15.2 c -2.306071,10.948546 -2.577031,12.389424 -2.411149,12.821701 0.102893,0.268131 0.609021,0.458298 1.219754,0.458298 h 1.043891 l -0.953847,0.928495 c -0.8012,0.779905 -1.275785,0.949742 -2.965545,1.061265 -1.728659,0.114091 -1.98385,0.06225 -1.813773,-0.368495 z"
         style="fill:#61acec;stroke-width:0.32" />
      <path
         id="path870"
         d="M 69.003635,25.396363 C 68.000822,24.393548 67.974995,24.094708 68.8,23.039999 c 0.344173,-0.44 0.62897,-0.957682 0.632883,-1.150403 0.0076,-0.372751 1.031703,-1.409597 1.392314,-1.409597 0.118141,0 0.214803,0.632594 0.214803,1.405764 0,1.621811 0.67968,2.147114 1.646278,1.272356 C 73.559219,22.368118 73.42503,21.829734 72,20.404705 c -1.090086,-1.090086 -1.28,-1.480943 -1.28,-2.63434 0,-0.981524 0.251347,-1.701315 0.913075,-2.614803 1.749632,-2.4153 3.774919,-3.037286 5.144141,-1.579816 l 0.728774,0.775745 -0.904176,1.133166 -0.904172,1.133165 -0.698631,-0.656328 c -0.571776,-0.537158 -0.820317,-0.591203 -1.368819,-0.297653 -0.907213,0.485525 -0.850102,0.768541 0.403725,2.000754 2.112329,2.075915 2.317488,3.483703 0.845859,5.804223 -0.701325,1.105874 -1.355578,1.683586 -2.426531,2.14265 -1.927363,0.826165 -2.440327,0.794178 -3.44961,-0.215105 z"
         style="fill:#97bf75;stroke-width:0.32" />
      <path
         id="path868"
         d="m 79.283395,25.797027 c -0.306134,-0.23244 -0.781139,-0.960002 -1.055568,-1.616804 -0.454003,-1.086582 -0.451616,-1.426314 0.0265,-3.770369 0.722211,-3.540913 1.441751,-5.05982 3.048448,-6.435092 C 82.347072,13.080866 82.958173,12.8 83.858778,12.8 c 1.014828,0 1.240585,0.137627 1.583411,0.965285 0.485725,1.172642 0.241539,2.944552 -0.542877,3.939351 -0.318621,0.404076 -1.371312,1.433337 -2.339312,2.287247 -0.968,0.853909 -1.800733,1.651263 -1.850518,1.771898 -0.04979,0.120634 0.179712,0.553059 0.509996,0.960944 0.556096,0.686748 0.652247,0.705378 1.299754,0.251847 0.384579,-0.269369 1.343078,-1.093223 2.13,-1.830785 L 86.08,19.804763 v 1.254464 c 0,1.563106 -0.819024,2.65384 -3.07767,4.098678 -1.797642,1.149937 -2.815735,1.324903 -3.718935,0.639122 z m 2.911715,-8.222565 c 0.710397,-0.762521 1.11904,-2.304098 0.562938,-2.123639 -0.496451,0.161103 -1.923462,2.789177 -1.51449,2.789177 0.18233,0 0.610528,-0.299493 0.951552,-0.665538 z"
         style="fill:#d09665;stroke-width:0.32" />
      <path
         id="path866"
         d="m 109.28897,26.126127 c -0.57047,-0.417136 -0.49974,-1.302396 0.34245,-4.286128 0.19942,-0.706518 0.15181,-0.72 -2.54273,-0.72 h -2.74595 l 0.60003,-1.399812 c 0.61394,-1.432246 3.81364,-6.264457 6.3337,-9.565189 1.34645,-1.7635598 4.26276,-3.8205767 3.83456,-2.7047073 -0.0992,0.2584448 -0.48777,2.1798569 -0.86354,4.2698043 -0.37577,2.089948 -0.81918,4.320611 -0.98536,4.957031 -0.48332,1.85107 -0.42741,1.962044 0.92366,1.833199 l 1.22578,-0.116898 -0.81553,1.35017 c -0.44855,0.742593 -1.09964,1.392072 -1.44687,1.443286 -0.8034,0.118494 -1.34166,1.976114 -0.87156,3.007879 0.35479,0.77868 0.30299,0.843837 -1.43009,1.798548 -0.82614,0.455098 -1.08736,0.477359 -1.55855,0.132817 z M 110.62909,16.48 c 0.21399,-1.056 0.35277,-2.04367 0.30839,-2.194822 -0.0973,-0.331311 -2.77748,3.514253 -2.77748,3.985142 0,0.181626 0.468,0.285105 1.04,0.229954 0.99577,-0.09601 1.05655,-0.181936 1.42909,-2.020274 z"
         style="fill:#54b3bf;stroke-width:0.32" />
      <path
         id="path864"
         d="m 58.728218,25.295891 c -0.630106,-1.21849 -0.619943,-3.287891 0.02864,-5.830046 0.722617,-2.832373 1.4872,-4.189654 3.108505,-5.518189 C 63.132557,12.909277 63.451779,12.8 65.217901,12.8 c 1.07359,0 2.304185,0.160473 2.734653,0.356606 0.779849,0.355323 0.780588,0.360219 0.205424,1.36 -0.317482,0.551867 -0.674976,1.651394 -0.794432,2.443394 -0.119456,0.792 -0.363028,1.950328 -0.541268,2.574063 -0.17824,0.623735 -0.274169,1.452629 -0.213174,1.841988 0.108768,0.694334 0.132397,0.68942 1.230896,-0.25596 l 1.12,-0.963885 0.103133,0.821362 c 0.132547,1.055612 -1.03448,2.594538 -3.139149,4.139507 C 64.168307,26.40586 63.36,26.409948 63.36,25.130043 c 0,-1.039938 -0.254838,-1.019494 -1.869216,0.149956 -1.658096,1.201118 -2.148205,1.203938 -2.762566,0.01589 z m 4.217808,-3.861378 c 0.749401,-0.732679 1.078371,-1.446424 1.364284,-2.96 0.569044,-3.012431 0.577908,-2.944377 -0.398182,-3.056528 -0.801693,-0.09211 -0.964534,0.07133 -1.677654,1.683818 -0.994087,2.247804 -1.419722,5.298196 -0.73928,5.298196 0.254819,0 0.907696,-0.434468 1.450832,-0.965486 z"
         style="fill:#de6670;stroke-width:0.32" />
      <path
         id="path862"
         d="m 42.56,25.452907 c 0,-0.435259 1.779581,-2.412889 2.171258,-2.412898 0.999782,-2.3e-5 2.010444,-1.096338 2.468998,-2.678237 0.603718,-2.08269 2.079744,-9.041416 2.079744,-9.804963 0,-0.7405491 -1.119466,-0.513038 -2.201242,0.447362 -1.221753,1.084671 -1.70614,2.585112 -1.46294,4.531617 l 0.213248,1.706766 -1.234535,0.561848 C 43.915539,18.113419 43.252,18.421844 43.12,18.489792 c -0.132,0.06795 -0.24,-1.078592 -0.24,-2.547865 0,-2.912556 0.575917,-4.489303 2.186598,-5.9864745 0.895501,-0.8323939 3.114557,-1.9371974 3.913514,-1.9484249 0.275059,-0.00387 1.246355,-0.3670278 2.158429,-0.8070278 1.995296,-0.9625622 1.963289,-0.9596428 1.754179,-0.16 -0.123133,0.4708595 -0.0095,0.6404717 0.429958,0.6417846 3.185114,0.00952 4.733591,2.3208986 3.512586,5.2431736 -0.244605,0.585422 -0.750227,1.349011 -1.123603,1.696865 l -0.678867,0.632462 0.644953,0.583675 c 0.835539,0.756152 1.341344,2.666577 1.067943,4.033598 -0.353124,1.765605 -1.321111,3.062762 -3.247469,4.351781 L 51.68,25.439999 47.12,25.550004 c -2.508,0.0605 -4.56,0.01681 -4.56,-0.0971 z m 9.305456,-2.638848 c 1.697482,-1.002727 2.491818,-3.95586 1.334544,-4.961484 -0.308,-0.26764 -0.952771,-0.579891 -1.432826,-0.693893 -0.764492,-0.181548 -0.896329,-0.09752 -1.062192,0.677022 -0.333635,1.557987 -1.178236,3.747742 -1.660124,4.304131 -0.257156,0.29691 -0.372948,0.69291 -0.257319,0.88 0.321485,0.520173 2.043923,0.405018 3.077917,-0.205776 z m 0.632269,-8.103545 c 1.47775,-0.790869 2.162099,-4.137684 0.975878,-4.7725312 -0.756912,-0.4050855 -1.149894,0.032678 -1.420189,1.5820172 -0.107468,0.616 -0.328284,1.66 -0.490704,2.32 -0.314192,1.276727 -0.135267,1.44331 0.935015,0.870514 z"
         style="fill:#3d434f;stroke-width:0.32" />
    </g>
  </g>
</svg>
